<svg width="128" height="128" viewBox="0 0 128 128" fill="none" xmlns="http://www.w3.org/2000/svg">
  <defs>
    <linearGradient id="background" x1="16" y1="8" x2="112" y2="120" gradientUnits="userSpaceOnUse">
      <stop stop-color="#172554"/>
      <stop offset="1" stop-color="#020617"/>
    </linearGradient>
    <linearGradient id="top" x1="35" y1="25" x2="95" y2="51" gradientUnits="userSpaceOnUse">
      <stop stop-color="#67E8F9"/>
      <stop offset="1" stop-color="#3B82F6"/>
    </linearGradient>
    <linearGradient id="middle" x1="27" y1="47" x2="101" y2="77" gradientUnits="userSpaceOnUse">
      <stop stop-color="#38BDF8"/>
      <stop offset="1" stop-color="#6366F1"/>
    </linearGradient>
    <linearGradient id="base" x1="20" y1="73" x2="108" y2="105" gradientUnits="userSpaceOnUse">
      <stop stop-color="#2563EB"/>
      <stop offset="1" stop-color="#7C3AED"/>
    </linearGradient>
  </defs>

  <rect x="4" y="4" width="120" height="120" rx="28" fill="url(#background)"/>
  <rect x="4.75" y="4.75" width="118.5" height="118.5" rx="27.25" stroke="white" stroke-opacity="0.12" stroke-width="1.5"/>

  <g transform="translate(8.96 2.08) scale(0.86)">
    <path d="M64 21L98 36L64 51L30 36L64 21Z" fill="url(#top)"/>
    <path d="M30 36V45L64 60V51L30 36Z" fill="#0EA5E9" fill-opacity="0.72"/>
    <path d="M98 36V45L64 60V51L98 36Z" fill="#2563EB" fill-opacity="0.78"/>

    <path d="M64 47L105 65L64 83L23 65L64 47Z" fill="url(#middle)"/>
    <path d="M23 65V74L64 92V83L23 65Z" fill="#0284C7" fill-opacity="0.78"/>
    <path d="M105 65V74L64 92V83L105 65Z" fill="#4F46E5" fill-opacity="0.82"/>

    <path d="M64 73L112 94L64 115L16 94L64 73Z" fill="url(#base)"/>
    <path d="M16 94V102L64 123V115L16 94Z" fill="#1D4ED8" fill-opacity="0.78"/>
    <path d="M112 94V102L64 123V115L112 94Z" fill="#6D28D9" fill-opacity="0.82"/>
  </g>
</svg>
